<svg width="48" height="48" viewBox="0 0 48 48" fill="none" xmlns="http://www.w3.org/2000/svg">
<g id="ic:round-delivery-dining">
<path id="Vector" d="M38 14C38 11.8 36.2 10 34 10H30C28.9 10 28 10.9 28 12C28 13.1 28.9 14 30 14H34V19.3L27.04 28H20V20C20 18.9 19.1 18 18 18H12C7.58 18 4 21.58 4 26V30C4 31.1 4.9 32 6 32H8C8 35.32 10.68 38 14 38C17.32 38 20 35.32 20 32H27.04C28.26 32 29.4 31.44 30.16 30.5L37.12 21.8C37.7 21.08 38 20.2 38 19.3V14ZM14 34C12.9 34 12 33.1 12 32H16C16 33.1 15.1 34 14 34Z" fill="url(#paint0_linear_672_105)"/>
<path id="Vector_2" d="M12 12H18C19.1 12 20 12.9 20 14C20 15.1 19.1 16 18 16H12C10.9 16 10 15.1 10 14C10 12.9 10.9 12 12 12ZM38 26C34.68 26 32 28.68 32 32C32 35.32 34.68 38 38 38C41.32 38 44 35.32 44 32C44 28.68 41.32 26 38 26ZM38 34C36.9 34 36 33.1 36 32C36 30.9 36.9 30 38 30C39.1 30 40 30.9 40 32C40 33.1 39.1 34 38 34Z" fill="url(#paint1_linear_672_105)"/>
</g>
<defs>
<linearGradient id="paint0_linear_672_105" x1="21" y1="10" x2="21" y2="38" gradientUnits="userSpaceOnUse">
<stop stop-color="#409989"/>
<stop offset="1" stop-color="#323334"/>
</linearGradient>
<linearGradient id="paint1_linear_672_105" x1="27" y1="12" x2="27" y2="38" gradientUnits="userSpaceOnUse">
<stop stop-color="#409989"/>
<stop offset="1" stop-color="#323334"/>
</linearGradient>
</defs>
</svg>
