<svg width="24" height="24" viewBox="0 0 24 24" fill="none" xmlns="http://www.w3.org/2000/svg">
<path d="M13.0278 2.00099C13.7576 1.99819 14.4873 2.00552 15.2168 2.02299L15.4108 2.02999C15.6348 2.03799 15.8558 2.04799 16.1228 2.05999C17.1868 2.10999 17.9128 2.27799 18.5498 2.52499C19.2098 2.77899 19.7658 3.12299 20.3218 3.67899C20.8302 4.17859 21.2237 4.78293 21.4748 5.44999C21.7218 6.08699 21.8898 6.81399 21.9398 7.87799C21.9518 8.14399 21.9618 8.36599 21.9698 8.58999L21.9758 8.78399C21.9936 9.51318 22.0013 10.2426 21.9988 10.972L21.9998 11.718V13.028C22.0023 13.7577 21.9946 14.4875 21.9768 15.217L21.9708 15.411C21.9628 15.635 21.9528 15.856 21.9408 16.123C21.8908 17.187 21.7208 17.913 21.4748 18.55C21.2245 19.2177 20.8309 19.8226 20.3218 20.322C19.8218 20.8303 19.2172 21.2237 18.5498 21.475C17.9128 21.722 17.1868 21.89 16.1228 21.94C15.8558 21.952 15.6348 21.962 15.4108 21.97L15.2168 21.976C14.4873 21.9938 13.7576 22.0014 13.0278 21.999L12.2818 22H10.9728C10.2431 22.0025 9.51337 21.9948 8.78384 21.977L8.58984 21.971C8.35245 21.9624 8.11512 21.9524 7.87784 21.941C6.81384 21.891 6.08784 21.721 5.44984 21.475C4.78253 21.2243 4.17808 20.8308 3.67884 20.322C3.16989 19.8223 2.77607 19.2175 2.52484 18.55C2.27784 17.913 2.10984 17.187 2.05984 16.123C2.04871 15.8857 2.03871 15.6484 2.02984 15.411L2.02484 15.217C2.00641 14.4875 1.99807 13.7577 1.99984 13.028V10.972C1.99705 10.2426 2.00439 9.51318 2.02184 8.78399L2.02884 8.58999C2.03684 8.36599 2.04684 8.14399 2.05884 7.87799C2.10884 6.81299 2.27684 6.08799 2.52384 5.44999C2.77522 4.78261 3.16981 4.17843 3.67984 3.67999C4.17874 3.17074 4.78281 2.77656 5.44984 2.52499C6.08784 2.27799 6.81284 2.10999 7.87784 2.05999L8.58984 2.02999L8.78384 2.02499C9.51303 2.00656 10.2424 1.99823 10.9718 1.99999L13.0278 2.00099ZM11.9998 7.00099C11.3374 6.99162 10.6796 7.11401 10.0648 7.36105C9.45004 7.6081 8.89049 7.97486 8.41869 8.44004C7.94689 8.90522 7.57224 9.45952 7.31653 10.0707C7.06082 10.682 6.92914 11.3379 6.92914 12.0005C6.92914 12.663 7.06082 13.319 7.31653 13.9302C7.57224 14.5414 7.94689 15.0958 8.41869 15.5609C8.89049 16.0261 9.45004 16.3929 10.0648 16.6399C10.6796 16.887 11.3374 17.0094 11.9998 17C13.3259 17 14.5977 16.4732 15.5354 15.5355C16.4731 14.5978 16.9998 13.3261 16.9998 12C16.9998 10.6739 16.4731 9.40213 15.5354 8.46445C14.5977 7.52677 13.3259 7.00099 11.9998 7.00099ZM11.9998 9.00099C12.3984 8.99364 12.7943 9.06578 13.1646 9.21319C13.535 9.3606 13.8722 9.58033 14.1566 9.85953C14.4411 10.1387 14.667 10.4718 14.8213 10.8393C14.9756 11.2068 15.055 11.6014 15.0551 12C15.0552 12.3986 14.9758 12.7931 14.8217 13.1607C14.6675 13.5283 14.4417 13.8614 14.1573 14.1407C13.873 14.42 13.5358 14.6399 13.1656 14.7874C12.7953 14.9349 12.3994 15.0072 12.0008 15C11.2052 15 10.4421 14.6839 9.87952 14.1213C9.31692 13.5587 9.00084 12.7956 9.00084 12C9.00084 11.2043 9.31692 10.4413 9.87952 9.87867C10.4421 9.31606 11.2052 8.99999 12.0008 8.99999L11.9998 9.00099ZM17.2498 5.50099C16.9272 5.5139 16.6221 5.65114 16.3984 5.88396C16.1748 6.11678 16.0498 6.42712 16.0498 6.74999C16.0498 7.07285 16.1748 7.38319 16.3984 7.61601C16.6221 7.84884 16.9272 7.98607 17.2498 7.99899C17.5814 7.99899 17.8993 7.86729 18.1337 7.63287C18.3682 7.39845 18.4998 7.08051 18.4998 6.74899C18.4998 6.41747 18.3682 6.09952 18.1337 5.8651C17.8993 5.63068 17.5814 5.49899 17.2498 5.49899V5.50099Z" fill="#F4D88F"/>
</svg>
