<svg width="48" height="48" viewBox="0 0 48 48" fill="none" xmlns="http://www.w3.org/2000/svg">
<g id="solar:card-bold">
<path id="Vector" fill-rule="evenodd" clip-rule="evenodd" d="M20 8H28C35.542 8 39.314 8 41.656 10.344C43.344 12.03 43.816 14.458 43.948 18.5H4.052C4.184 14.458 4.656 12.03 6.344 10.344C8.686 8 12.458 8 20 8ZM28 40H20C12.458 40 8.686 40 6.344 37.656C4 35.314 4 31.542 4 24C4 23.116 4 22.284 4.004 21.5H43.996C44 22.284 44 23.116 44 24C44 31.542 44 35.314 41.656 37.656C39.314 40 35.542 40 28 40ZM12 30.5C11.6022 30.5 11.2206 30.658 10.9393 30.9393C10.658 31.2206 10.5 31.6022 10.5 32C10.5 32.3978 10.658 32.7794 10.9393 33.0607C11.2206 33.342 11.6022 33.5 12 33.5H20C20.3978 33.5 20.7794 33.342 21.0607 33.0607C21.342 32.7794 21.5 32.3978 21.5 32C21.5 31.6022 21.342 31.2206 21.0607 30.9393C20.7794 30.658 20.3978 30.5 20 30.5H12ZM25 30.5C24.6022 30.5 24.2206 30.658 23.9393 30.9393C23.658 31.2206 23.5 31.6022 23.5 32C23.5 32.3978 23.658 32.7794 23.9393 33.0607C24.2206 33.342 24.6022 33.5 25 33.5H28C28.3978 33.5 28.7794 33.342 29.0607 33.0607C29.342 32.7794 29.5 32.3978 29.5 32C29.5 31.6022 29.342 31.2206 29.0607 30.9393C28.7794 30.658 28.3978 30.5 28 30.5H25Z" fill="url(#paint0_linear_672_100)"/>
</g>
<defs>
<linearGradient id="paint0_linear_672_100" x1="24" y1="8" x2="24" y2="40" gradientUnits="userSpaceOnUse">
<stop stop-color="#409989"/>
<stop offset="1" stop-color="#323334"/>
</linearGradient>
</defs>
</svg>
